<svg width="30" height="30" viewBox="0 0 20 20" fill="none" xmlns="http://www.w3.org/2000/svg">
<circle cx="10" cy="10" r="10" fill="white" fill-opacity="0.8"/>
<path fill-rule="evenodd" clip-rule="evenodd" d="M13.1261 6.70691C13.4001 6.57848 13.7566 6.53013 13.9525 6.75042C14.3203 7.16412 14.6112 7.6291 14.8191 8.12414C14.9335 8.39623 14.7257 8.68705 14.481 8.86686C14.3587 8.95664 14.2526 9.07066 14.1709 9.20673C13.8396 9.75851 14.0362 10.4641 14.61 10.7826C14.8549 10.9186 15.0644 11.1686 14.9816 11.4339C14.8678 11.7982 14.7087 12.1558 14.5023 12.4996C14.296 12.8431 14.0537 13.1542 13.7827 13.431C13.585 13.6329 13.2544 13.5832 13.0092 13.4471C12.4354 13.1285 11.7016 13.3175 11.3703 13.8693C11.2885 14.0055 11.2389 14.1511 11.2192 14.2979C11.1797 14.5918 11.0217 14.9105 10.7193 14.9513C10.1696 15.0255 9.60552 15.0157 9.04916 14.9162C8.75278 14.8632 8.6181 14.5421 8.59686 14.2496C8.57 13.8798 8.35865 13.5291 7.99971 13.3299C7.64088 13.1307 7.21951 13.1299 6.87312 13.2923C6.59907 13.4208 6.24246 13.4691 6.0466 13.2487C5.67911 12.8352 5.3885 12.3705 5.18066 11.8758C5.06632 11.6037 5.27417 11.3128 5.51902 11.133C5.64132 11.0432 5.74756 10.9291 5.8293 10.793C6.1606 10.2412 5.96399 9.53565 5.39016 9.21708C5.1452 9.08108 4.93553 8.83095 5.01842 8.56558C5.13219 8.2014 5.29125 7.84403 5.49756 7.50042C5.70399 7.15661 5.94647 6.8453 6.21776 6.56836C6.41524 6.36677 6.74517 6.41625 6.99001 6.55218C7.56383 6.87075 8.29758 6.6817 8.62888 6.12991C8.71057 5.99385 8.76017 5.84844 8.77992 5.70178C8.81949 5.40804 8.97753 5.08966 9.27974 5.04881C9.82947 4.9745 10.3935 4.98421 10.9499 5.08363C11.2463 5.13657 11.381 5.45762 11.4024 5.75001C11.4293 6.11963 11.6407 6.47016 11.9995 6.66937C12.3583 6.86859 12.7797 6.86929 13.1261 6.70691ZM9.97776 11.9286C11.0821 11.9286 11.9773 11.0678 11.9773 10.0059C11.9773 8.94397 11.0821 8.08312 9.97776 8.08312C8.87343 8.08312 7.9782 8.94397 7.9782 10.0059C7.9782 11.0678 8.87343 11.9286 9.97776 11.9286Z" fill="#575D63"/>
</svg>
