<svg width="55" height="55" viewBox="0 0 44 44" fill="none" xmlns="http://www.w3.org/2000/svg">
<g filter="url(#filter0_d_1883_4215)">
<rect x="1" y="1" width="40" height="40" rx="20" fill="#FF8A00"/>
</g>
<path fill-rule="evenodd" clip-rule="evenodd" d="M20.0669 15C20.0669 14.4477 19.6192 14 19.0669 14H16C13.7909 14 12 15.7909 12 18V27C12 29.2091 13.7909 31 16 31H25C27.2091 31 29 29.2091 29 27V23.9335C29 23.3812 28.5523 22.9335 28 22.9335V22.9335C27.4477 22.9335 27 23.3812 27 23.9335V27C27 28.1046 26.1046 29 25 29H16C14.8954 29 14 28.1046 14 27V18C14 16.8954 14.8954 16 16 16H19.0669C19.6192 16 20.0669 15.5523 20.0669 15V15Z" fill="white"/>
<path d="M23.2165 22.6631L20.2702 23.488C19.8947 23.5931 19.5488 23.2472 19.6539 22.8717L20.4788 19.9254C20.502 19.8428 20.5461 19.7674 20.6068 19.7067L28.9602 11.3533C29.1554 11.1581 29.472 11.1581 29.6673 11.3533L31.7886 13.4746C31.9838 13.6699 31.9838 13.9865 31.7886 14.1817L23.4352 22.5351C23.3745 22.5959 23.2991 22.6399 23.2165 22.6631Z" stroke="white" stroke-width="2"/>
<defs>
<filter id="filter0_d_1883_4215" x="0" y="0" width="44" height="44" filterUnits="userSpaceOnUse" color-interpolation-filters="sRGB">
<feFlood flood-opacity="0" result="BackgroundImageFix"/>
<feColorMatrix in="SourceAlpha" type="matrix" values="0 0 0 0 0 0 0 0 0 0 0 0 0 0 0 0 0 0 127 0" result="hardAlpha"/>
<feOffset dx="1" dy="1"/>
<feGaussianBlur stdDeviation="1"/>
<feComposite in2="hardAlpha" operator="out"/>
<feColorMatrix type="matrix" values="0 0 0 0 0 0 0 0 0 0 0 0 0 0 0 0 0 0 0.25 0"/>
<feBlend mode="normal" in2="BackgroundImageFix" result="effect1_dropShadow_1883_4215"/>
<feBlend mode="normal" in="SourceGraphic" in2="effect1_dropShadow_1883_4215" result="shape"/>
</filter>
</defs>
</svg>
